<svg width="1600" height="900" viewBox="0 0 1600 900" xmlns="http://www.w3.org/2000/svg">
  <defs>
    <linearGradient id="bg2" x1="0" y1="0" x2="1" y2="1">
      <stop offset="0%" stop-color="#20262b"/>
      <stop offset="100%" stop-color="#2a3137"/>
    </linearGradient>
    <style>
      .title { font: 700 54px 'Segoe UI', Arial, sans-serif; fill: #f5f8f8; }
      .h { font: 700 27px 'Segoe UI', Arial, sans-serif; fill: #eef6f5; }
      .p { font: 400 22px 'Segoe UI', Arial, sans-serif; fill: #d2dedc; }
      .small { font: 400 19px 'Segoe UI', Arial, sans-serif; fill: #b8c8c5; }
      .code { font: 400 20px Consolas, 'Courier New', monospace; fill: #dff8f4; }
    </style>
  </defs>

  <rect x="0" y="0" width="1600" height="900" fill="url(#bg2)"/>

  <rect x="60" y="50" rx="18" ry="18" width="1480" height="110" fill="#11181b" opacity="0.82"/>
  <text x="100" y="118" class="title">Text-first vs LSP vs RoslynSkills</text>

  <rect x="60" y="200" rx="16" ry="16" width="470" height="560" fill="#141c20" opacity="0.92"/>
  <text x="95" y="250" class="h">Text-first</text>
  <text x="95" y="296" class="p">Pros</text>
  <text x="95" y="333" class="p">- very flexible</text>
  <text x="95" y="368" class="p">- fast to start</text>
  <text x="95" y="412" class="p">Limit</text>
  <text x="95" y="448" class="p">- symbol ambiguity</text>
  <text x="95" y="483" class="p">- easier to drift off-target</text>
  <text x="95" y="518" class="p">- feedback often deferred</text>

  <rect x="565" y="200" rx="16" ry="16" width="470" height="560" fill="#141c20" opacity="0.92"/>
  <text x="600" y="250" class="h">LSP-first</text>
  <text x="600" y="296" class="p">Pros</text>
  <text x="600" y="333" class="p">- rich editor interaction</text>
  <text x="600" y="368" class="p">- mature tooling ecosystem</text>
  <text x="600" y="412" class="p">Limit</text>
  <text x="600" y="448" class="p">- less explicit command contracts</text>
  <text x="600" y="483" class="p">- harder to compare trajectories</text>
  <text x="600" y="518" class="p">- can be less deterministic in agent loops</text>

  <rect x="1070" y="200" rx="16" ry="16" width="470" height="560" fill="#132026" opacity="0.95"/>
  <text x="1105" y="250" class="h">RoslynSkills (roscli)</text>
  <text x="1105" y="296" class="p">Pros</text>
  <text x="1105" y="333" class="p">- explicit command IDs and schemas</text>
  <text x="1105" y="368" class="p">- structured edit + diagnostics loop</text>
  <text x="1105" y="403" class="p">- reproducible benchmark traces</text>
  <text x="1105" y="447" class="p">Tradeoff</text>
  <text x="1105" y="483" class="p">- prompt/tool onboarding quality matters</text>
  <text x="1105" y="518" class="p">- still proving net advantage by task type</text>

  <rect x="80" y="792" rx="12" ry="12" width="1440" height="70" fill="#0f1518" opacity="0.9"/>
  <text x="105" y="835" class="code">Research stance: treat LSP as a serious baseline; test substitution and complementarity empirically.</text>
</svg>

